<?xml version="1.0" encoding="UTF-8" standalone="no"?>
<!DOCTYPE svg PUBLIC "-//W3C//DTD SVG 1.1//EN" "http://www.w3.org/Graphics/SVG/1.1/DTD/svg11.dtd">
<svg width="100%" height="100%" viewBox="0 0 230 157" version="1.1" xmlns="http://www.w3.org/2000/svg" xmlns:xlink="http://www.w3.org/1999/xlink" xml:space="preserve" xmlns:serif="http://www.serif.com/" style="fill-rule:evenodd;clip-rule:evenodd;stroke-linecap:round;stroke-miterlimit:5;">
    <g transform="matrix(1,0,0,1,-1505.58,-208.643)">
        <g id="steuer-panel" serif:id="steuer panel" transform="matrix(0.176143,0,0,0.176143,1485.2,166.513)">
            <g id="steuer-panel1" serif:id="steuer panel" transform="matrix(1.86688,0,0,1.86688,-1430.84,-492.332)">
                <g transform="matrix(0.535654,0,0,0.59809,844.662,176.244)">
                    <path d="M489.736,369.192L489.736,1147.28" style="fill:none;stroke:rgb(206,0,4);stroke-width:3.6px;stroke-dasharray:3.6,10.81,0,0;"/>
                </g>
                <g transform="matrix(1,0,0,1,401.929,-26.0794)">
                    <path d="M433.954,727.173L981.621,727.173" style="fill:none;stroke:rgb(6,6,0);stroke-width:11.92px;stroke-linejoin:round;stroke-miterlimit:1.5;"/>
                </g>
                <g transform="matrix(0.469622,0.469622,-0.469622,0.469622,1642.9,305.819)">
                    <g transform="matrix(0.750185,0,0,0.750185,17.473,179.362)">
                        <path d="M69.944,185.393L69.944,717.978" style="fill:rgb(0,70,10);stroke:rgb(77,126,84);stroke-width:4.11px;stroke-linejoin:round;stroke-miterlimit:1.5;"/>
                    </g>
                    <g transform="matrix(7.14014e-18,-0.116607,0.568461,3.48082e-17,-446,765.338)">
                        <path d="M415.449,919.256L415.449,947.191L218.258,904.213L415.449,861.236L415.449,889.171L415.449,861.236L415.449,947.191L415.449,919.256Z" style="fill:rgb(0,70,10);stroke:rgb(77,126,84);stroke-width:1.8px;stroke-linejoin:round;stroke-miterlimit:1.5;"/>
                    </g>
                </g>
                <g transform="matrix(-0.54209,-0.383704,0.383704,-0.54209,1211.07,880.171)">
                    <g transform="matrix(0.750185,0,0,0.750185,17.473,179.362)">
                        <path d="M69.944,185.393L69.944,717.978" style="fill:rgb(0,70,10);stroke:rgb(77,126,84);stroke-width:4.11px;stroke-linejoin:round;stroke-miterlimit:1.5;"/>
                    </g>
                    <g transform="matrix(7.14014e-18,-0.116607,0.568461,3.48082e-17,-446,765.338)">
                        <path d="M415.449,919.256L415.449,947.191L218.258,904.213L415.449,861.236L415.449,889.171L415.449,861.236L415.449,947.191L415.449,919.256Z" style="fill:rgb(0,70,10);stroke:rgb(77,126,84);stroke-width:1.8px;stroke-linejoin:round;stroke-miterlimit:1.5;"/>
                    </g>
                </g>
                <g transform="matrix(2.43259e-17,-0.397271,0.397271,2.43259e-17,1015.3,782.623)">
                    <g transform="matrix(0.750185,0,0,0.750185,17.473,179.362)">
                        <path d="M69.944,185.393L69.944,717.978" style="fill:rgb(206,0,4);stroke:rgb(206,0,4);stroke-width:6.87px;stroke-linejoin:round;stroke-miterlimit:1.5;"/>
                    </g>
                    <g transform="matrix(7.14014e-18,-0.116607,0.568461,3.48082e-17,-446,765.338)">
                        <path d="M415.449,919.256L415.449,947.191L218.258,904.213L415.449,861.236L415.449,889.171L415.449,861.236L415.449,947.191L415.449,919.256Z" style="fill:rgb(206,0,4);stroke:rgb(206,0,4);stroke-width:3.01px;stroke-linejoin:round;stroke-miterlimit:1.5;"/>
                    </g>
                </g>
                <g transform="matrix(2.43259e-17,0.397271,-0.397271,2.43259e-17,1182.19,728.495)">
                    <g transform="matrix(0.750185,0,0,0.750185,17.473,179.362)">
                        <path d="M69.944,185.393L69.944,717.978" style="fill:rgb(206,0,4);stroke:rgb(206,0,4);stroke-width:6.87px;stroke-linejoin:round;stroke-miterlimit:1.5;"/>
                    </g>
                    <g transform="matrix(7.14014e-18,-0.116607,0.568461,3.48082e-17,-446,765.338)">
                        <path d="M415.449,919.256L415.449,947.191L218.258,904.213L415.449,861.236L415.449,889.171L415.449,861.236L415.449,947.191L415.449,919.256Z" style="fill:rgb(206,0,4);stroke:rgb(206,0,4);stroke-width:3.01px;stroke-linejoin:round;stroke-miterlimit:1.5;"/>
                    </g>
                </g>
            </g>
            <g transform="matrix(8.65974e-17,0.78,-0.37,4.10783e-17,1334.42,624.468)">
                <path d="M229.555,491.796L229.555,614.523L106.829,614.523L229.555,491.796Z" style="fill:rgb(206,0,4);fill-opacity:0;stroke:rgb(206,0,4);stroke-width:6.26px;stroke-dasharray:6.26,18.78,0,0;"/>
            </g>
            <g transform="matrix(4.21885e-17,0.38,-0.81,8.99281e-17,1294.31,717.518)">
                <path d="M229.555,491.796L229.555,614.523L106.829,614.523L229.555,491.796Z" style="fill:rgb(206,0,4);fill-opacity:0;stroke:rgb(206,0,4);stroke-width:6.04px;stroke-dasharray:6.04,18.12,0,0;"/>
            </g>
            <g transform="matrix(5.10703e-17,0.46,-0.59,6.55032e-17,1344.44,699.153)">
                <path d="M229.555,491.796L229.555,614.523L106.829,614.523L229.555,491.796Z" style="fill:rgb(206,0,4);fill-opacity:0;stroke:rgb(206,0,4);stroke-width:7.22px;stroke-dasharray:7.22,21.67,0,0;"/>
            </g>
            <g transform="matrix(-3.93129e-18,0.343573,0.908274,1.03928e-17,-111.374,723.864)">
                <path d="M229.555,491.796L229.555,614.523L106.829,614.523L229.555,491.796Z" style="fill:rgb(206,0,4);fill-opacity:0;stroke:rgb(206,0,4);stroke-width:5.56px;stroke-dasharray:5.56,16.69,0,0;"/>
            </g>
            <g transform="matrix(-7.93612e-18,0.693573,0.408274,4.67163e-18,-75.3379,644.746)">
                <path d="M229.555,491.796L229.555,614.523L106.829,614.523L229.555,491.796Z" style="fill:rgb(206,0,4);fill-opacity:0;stroke:rgb(206,0,4);stroke-width:6.71px;stroke-dasharray:6.71,20.14,0,0;"/>
            </g>
            <g transform="matrix(-6.79189e-18,0.593573,0.558274,6.38798e-18,-48.4716,666.475)">
                <path d="M229.555,491.796L229.555,614.523L106.829,614.523L229.555,491.796Z" style="fill:rgb(206,0,4);fill-opacity:0;stroke:rgb(206,0,4);stroke-width:6.63px;stroke-dasharray:6.63,19.89,0,0;"/>
            </g>
            <g transform="matrix(1.22465e-22,1.13,-2e-06,6.91925e-17,1256.55,802.294)">
                <path d="M229.555,491.796L229.555,614.523L106.829,614.523L229.555,491.796Z" style="fill:rgb(206,0,4);fill-opacity:0;stroke:rgb(206,0,4);stroke-width:4.78px;stroke-dasharray:4.78,14.35,0,0;"/>
            </g>
        </g>
    </g>
</svg>
