<?xml version="1.0" encoding="UTF-8" standalone="no"?>
<!DOCTYPE svg PUBLIC "-//W3C//DTD SVG 1.1//EN" "http://www.w3.org/Graphics/SVG/1.1/DTD/svg11.dtd">
<svg width="100%" height="100%" viewBox="0 0 261 104" version="1.1" xmlns="http://www.w3.org/2000/svg" xmlns:xlink="http://www.w3.org/1999/xlink" xml:space="preserve" xmlns:serif="http://www.serif.com/" style="fill-rule:evenodd;clip-rule:evenodd;stroke-linecap:round;stroke-linejoin:round;stroke-miterlimit:1.5;">
    <g transform="matrix(1,0,0,1,-89.3094,-265.723)">
        <g id="Szene1" transform="matrix(0.170459,0,0,0.170459,81.8809,239.549)">
            <rect x="130.618" y="158.427" width="1368.54" height="594.944" style="fill:rgb(209,209,209);stroke:black;stroke-width:9.75px;"/>
            <path d="M180,288.202L180,505.618" style="fill:none;stroke:black;stroke-width:15.59px;"/>
            <g transform="matrix(1,0,0,1,1269.1,178.652)">
                <path d="M180,288.202L180,505.618" style="fill:none;stroke:black;stroke-width:15.59px;"/>
            </g>
            <g transform="matrix(1.15,0,0,1.15,-61.559,22.6685)">
                <circle cx="975" cy="289.888" r="25.281" style="stroke:black;stroke-opacity:0;stroke-width:13.56px;"/>
            </g>
            <g>
                <path d="M69.944,185.393L69.944,717.978" style="fill:none;stroke:black;stroke-width:3.9px;"/>
                <g transform="matrix(7.14014e-18,0.116607,-0.568461,3.48082e-17,583.72,136.347)">
                    <path d="M415.449,919.256L415.449,947.191L218.258,904.213L415.449,861.236L415.449,889.171L415.449,861.236L415.449,947.191L415.449,919.256Z"/>
                </g>
                <g transform="matrix(7.14014e-18,-0.116607,0.568461,3.48082e-17,-446,765.338)">
                    <path d="M415.449,919.256L415.449,947.191L218.258,904.213L415.449,861.236L415.449,889.171L415.449,861.236L415.449,947.191L415.449,919.256Z"/>
                </g>
            </g>
            <g transform="matrix(1,0,0,1,1478.09,8.42697)">
                <path d="M69.944,185.393L69.944,717.978" style="fill:none;stroke:black;stroke-width:3.9px;"/>
                <g transform="matrix(7.14014e-18,0.116607,-0.568461,3.48082e-17,583.72,136.347)">
                    <path d="M415.449,919.256L415.449,947.191L218.258,904.213L415.449,861.236L415.449,889.171L415.449,861.236L415.449,947.191L415.449,919.256Z"/>
                </g>
                <g transform="matrix(7.14014e-18,-0.116607,0.568461,3.48082e-17,-446,765.338)">
                    <path d="M415.449,919.256L415.449,947.191L218.258,904.213L415.449,861.236L415.449,889.171L415.449,861.236L415.449,947.191L415.449,919.256Z"/>
                </g>
            </g>
        </g>
    </g>
</svg>
